# xmcd CD database file
#
# Track frame offsets:
#	150
#	16150
#	30950
#	35195
#	56420
#	75685
#	99370
#	119580
#
# Disc length: 1834 seconds
#
# Revision: 0
# Processed by: cddbd v1.5.1PL0 Copyright (c) Steve Scherf et al.
# Submitted via: CDex 1.51
#
DISCID=59072808
DTITLE=Blind Pig - BLIND PIG
DYEAR=2000
DGENRE=Rock
TTITLE0=TRY!
TTITLE1=憂鬱
TTITLE2=Drastic Rain
TTITLE3=Don't Close Your Eyes
TTITLE4=PUNK
TTITLE5=Himonya Park
TTITLE6=Freedom
TTITLE7=Alive
EXTD=YEAR: 2000
EXTT0=
EXTT1=
EXTT2=
EXTT3=
EXTT4=
EXTT5=
EXTT6=
EXTT7=
PLAYORDER=
